PathFileType	4	(X/Y/Z)	C:\Users\Basilio\Documents\Thesis Gigler\squatting_fais\c3dfiles\044\SJ_pre1\markers_experimental.trc
DataRate	CameraRate	NumFrames	NumMarkers	Units	OrigDataRate	OrigDataStartFrame	OrigNumFrames
200.000000	200.000000	4	63	mm	200.000000	1232	1409
Frame#	Time	FHD			LBHD			RBHD			C7			T10			CLAV			LSHO			LUUPA			LMUPA			LDUPA			LLEP			LMEP			LRAD			LUL			LRFIN			RSHO			RUPA1			RMUPA			RDUPA			RLEP			RMEP			RRAD			RUL			RUFIN			LASI			RASI			USACR			LSACR			RSACR			LTHI1			LTHI2			LTHI3			LTHI4			LLFC			LMFC			LTIB1			LTIB2			LTIB3			LTIB4			LLMAL			LMMAL			LHEE			LMT1			LMT2			LMT5			RTHI			RTHI2			RTHI3			RTHI4			RLFC			RMFC			RTIB1			RTIB2			RTIB3			RTIB4			RLMAL			RMMAL			RHEE			RMT1			RMT2			RMT5			*61			*62			
		X1	Y1	Z1	X2	Y2	Z2	X3	Y3	Z3	X4	Y4	Z4	X5	Y5	Z5	X6	Y6	Z6	X7	Y7	Z7	X8	Y8	Z8	X9	Y9	Z9	X10	Y10	Z10	X11	Y11	Z11	X12	Y12	Z12	X13	Y13	Z13	X14	Y14	Z14	X15	Y15	Z15	X16	Y16	Z16	X17	Y17	Z17	X18	Y18	Z18	X19	Y19	Z19	X20	Y20	Z20	X21	Y21	Z21	X22	Y22	Z22	X23	Y23	Z23	X24	Y24	Z24	X25	Y25	Z25	X26	Y26	Z26	X27	Y27	Z27	X28	Y28	Z28	X29	Y29	Z29	X30	Y30	Z30	X31	Y31	Z31	X32	Y32	Z32	X33	Y33	Z33	X34	Y34	Z34	X35	Y35	Z35	X36	Y36	Z36	X37	Y37	Z37	X38	Y38	Z38	X39	Y39	Z39	X40	Y40	Z40	X41	Y41	Z41	X42	Y42	Z42	X43	Y43	Z43	X44	Y44	Z44	X45	Y45	Z45	X46	Y46	Z46	X47	Y47	Z47	X48	Y48	Z48	X49	Y49	Z49	X50	Y50	Z50	X51	Y51	Z51	X52	Y52	Z52	X53	Y53	Z53	X54	Y54	Z54	X55	Y55	Z55	X56	Y56	Z56	X57	Y57	Z57	X58	Y58	Z58	X59	Y59	Z59	X60	Y60	Z60	X61	Y61	Z61	X62	Y62	Z62	X63	Y63	Z63	

1233	6.16	-313.3311767578126	1775.477783203125	-903.0181274414065	-438.382781982422	1721.652587890625	-982.7202758789065	-479.9192810058595	1694.601318359375	-823.2825927734377	-495.8583068847657	1540.65380859375	-910.8576660156252	-524.6296997070314	1234.892211914063	-917.567565917969	-356.7991943359376	1492.615966796875	-912.0840454101565	-399.2066955566407	1538.82275390625	-1091.137573242188	-473.456024169922	1366.501586914063	-1236.435791015625	-440.8657531738282	1327.730224609375	-1229.551391601563	-483.4278869628907	1305.261596679688	-1267.785888671875	-483.1912841796876	1246.299194335938	-1281.257934570313	-551.2882690429689	1240.258178710938	-1231.216674804688	-454.942108154297	1001.562377929688	-1140.651123046875	-412.8551025390626	992.389587402344	-1194.703369140625	-399.8037719726564	1011.323425292969	-1103.59912109375	-406.3038330078126	1510.587158203125	-716.4387817382814	-466.3304138183595	1335.693603515625	-581.4975585937501	-432.8294982910157	1297.35595703125	-588.4335937500001	-470.1760864257814	1273.029296875	-548.8700561523439	-462.8867187500001	1210.537475585938	-536.7860107421876	-537.6441650390626	1199.621948242188	-579.2531127929689	-436.141815185547	984.9984130859377	-703.6752319335939	-394.9057617187501	965.9732666015627	-647.5992431640626	-376.1346435546876	987.6355590820315	-749.2471313476564	-363.4229125976563	1028.5322265625	-1036.29443359375	-350.2036743164063	1002.751647949219	-822.2106933593752	-517.8491210937501	1088.44482421875	-915.5972290039065	-528.8773193359376	1057.597534179688	-942.7989501953127	-523.0311279296876	1058.136962890625	-886.2802734375002	-479.3170166015626	806.6317138671877	-1124.258544921875	-447.823944091797	728.7818603515626	-1136.928588867188	-399.4341125488282	730.3150024414064	-1135.440795898438	-473.6655273437501	675.4423828125001	-1124.2353515625	-456.3701782226564	517.3867797851564	-1128.09130859375	-435.8514709472657	496.8499450683595	-1009.112731933594	-429.8792724609376	334.8716735839844	-1079.514282226563	-464.5108642578126	296.9074401855469	-1152.945068359375	-430.2578125000001	291.0972290039063	-1120.027954101563	-444.593475341797	210.7295227050782	-1098.436157226563	-500.6727905273439	96.8653259277344	-1154.203979492188	-475.5555725097657	99.62222290039065	-1071.111938476563	-555.5250854492189	48.81351852416994	-1105.83154296875	-338.9162597656251	62.63127899169923	-1103.63623046875	-343.4331970214844	64.8388137817383	-1149.473022460938	-381.6202697753907	42.35768127441407	-1193.808471679688	-460.1610412597657	749.9017944335939	-735.4959716796876	-419.8205566406251	696.7938842773439	-726.3121337890626	-386.6338500976564	698.7738037109376	-730.3131103515626	-442.248992919922	615.7899169921876	-740.2817993164064	-442.4248046875001	503.6848144531251	-741.4624633789064	-441.680145263672	489.0201416015626	-863.8828735351565	-407.3380126953126	371.8209228515626	-757.2778320312501	-484.8172912597657	310.3370971679688	-708.3494262695314	-443.1537475585939	298.7325744628907	-723.9449462890626	-437.0275268554689	245.5347442626954	-744.9515991210939	-515.6207275390626	96.37014007568362	-722.1104125976564	-491.3235778808595	99.96165466308597	-804.1143188476565	-567.7126464843751	49.83537673950197	-768.143005371094	-355.4502868652344	63.00249481201173	-772.4683837890627	-352.0494079589844	60.43283462524415	-735.9487915039064	-389.4449157714845	41.28660583496094	-683.4816894531251	nan	nan	nan	nan	nan	nan	
1234	6.165	-313.2749023437501	1775.45556640625	-902.864929199219	-438.0983886718751	1721.687133789063	-982.713317871094	-479.8740234375001	1694.566528320313	-823.2014770507815	-495.7901611328126	1540.627685546875	-910.9194335937502	-524.5596923828126	1234.93603515625	-917.639587402344	-356.7668762207032	1492.572509765625	-912.059997558594	-398.9975585937501	1538.738403320313	-1091.148193359375	-473.332489013672	1366.50146484375	-1236.460815429688	-440.6851196289064	1327.767578125	-1229.550903320313	-483.2687988281251	1305.238525390625	-1267.80224609375	-483.0098571777345	1246.35888671875	-1281.286865234375	-551.0865478515626	1240.268920898438	-1231.273681640625	-454.1667785644532	1001.234619140625	-1140.891235351563	-413.1398315429689	992.0144042968752	-1194.71044921875	-399.8044738769532	1011.392028808594	-1103.649536132813	-406.3661499023439	1510.474487304688	-716.4002685546876	-466.4296875000001	1335.560668945313	-581.5302124023439	-432.7939453125001	1297.232543945313	-588.3623657226564	-470.4100952148439	1272.892456054688	-548.8190307617189	-463.0483703613282	1210.52294921875	-536.9615478515626	-538.5251464843751	1199.671997070313	-579.1102294921876	-436.3728942871095	984.7517089843752	-703.7690429687501	-395.257049560547	965.734558105469	-647.5847167968751	-376.2698669433594	987.540222167969	-749.2504272460939	-363.4041748046876	1028.487426757813	-1036.376831054688	-350.2812194824219	1002.798461914063	-822.2617187500002	-517.8377075195314	1088.5126953125	-915.6677246093752	-528.8441772460939	1057.609008789063	-942.850769042969	-523.0928955078126	1058.193481445313	-886.3186035156252	-479.3359985351564	806.6405029296877	-1124.25244140625	-447.9104919433595	728.8094482421876	-1136.900756835938	-399.4622802734376	730.3562011718751	-1135.449584960938	-473.7429809570314	675.4301147460939	-1124.230346679688	-456.5595092773439	517.4166259765626	-1128.079223632813	-435.9697570800782	496.8697204589845	-1009.154418945313	-430.0362548828126	334.7972717285157	-1079.424072265625	-464.5455627441407	296.9108886718751	-1152.9794921875	-430.5393371582032	291.7273254394532	-1119.987915039063	-444.6196289062501	210.8142700195313	-1098.433837890625	-500.6240539550782	96.8641052246094	-1154.18017578125	-475.5776977539064	99.60491943359378	-1071.188354492188	-555.5644531250001	48.8070526123047	-1105.837280273438	-338.8259277343751	62.489559173584	-1103.624755859375	-343.4351806640626	64.81870269775392	-1149.363159179688	-381.6228027343751	42.30688858032227	-1193.796875	-460.2535095214845	749.8744506835939	-735.6735229492189	-419.9307556152345	696.7279052734376	-726.3981323242189	-386.7687072753907	698.7811889648439	-730.3927612304689	-442.4856262207032	616.1171264648439	-740.6398925781251	-442.5271606445314	503.7023010253907	-741.4824829101564	-441.8508911132814	489.0006713867189	-863.912536621094	-407.4868774414064	371.6815185546876	-757.4799194335939	-484.8704223632814	310.3092956542969	-708.3419799804689	-443.2598571777345	298.6777648925782	-723.9050903320314	-437.0699462890626	245.4805145263672	-744.8617553710939	-515.6320190429689	96.36992645263675	-722.1026000976564	-491.3691711425782	99.95054626464847	-804.1091308593752	-567.6604003906251	49.85012435913087	-768.0864257812502	-355.5389709472657	62.9302101135254	-772.5073852539065	-351.9952087402344	60.33255004882814	-735.9808959960939	-389.4248657226564	41.32600402832032	-683.4966430664064	nan	nan	nan	nan	nan	nan	
1235	6.17	-313.2332153320313	1775.478637695313	-902.7838134765627	-438.0318298339845	1721.768798828125	-982.7048339843752	-479.8087158203126	1694.467895507813	-823.2956542968752	-495.9290771484376	1541.077514648438	-911.167175292969	-524.5246582031251	1234.934814453125	-917.6817016601565	-356.7762451171876	1492.492065429688	-912.0155029296877	-398.9310302734376	1538.734252929688	-1091.199951171875	-473.1402282714845	1366.546264648438	-1236.53076171875	-440.566375732422	1327.79150390625	-1229.63623046875	-483.1221923828126	1305.24267578125	-1267.86328125	-482.8121643066407	1246.41748046875	-1281.423095703125	-550.9634399414064	1240.453247070313	-1231.420776367188	-454.8037719726564	1001.485107421875	-1140.73583984375	-412.8022460937501	992.3477172851565	-1194.73486328125	-399.8273010253907	1011.315002441406	-1103.591918945313	-406.4104309082032	1510.187622070313	-716.3795776367189	-466.515594482422	1335.365966796875	-581.6301269531251	-432.9925231933595	1297.2607421875	-588.4603881835939	-470.5235595703126	1272.741943359375	-548.8999633789064	-463.2591857910157	1210.400268554688	-537.0069580078126	-538.6730957031251	1199.585571289063	-579.1860961914064	-436.5993652343751	984.7194824218752	-703.7910766601564	-395.4969177246095	965.4912719726565	-647.5626220703126	-376.4096984863282	987.4451904296877	-749.2608642578126	-363.5027770996094	1028.412353515625	-1036.345092773438	-350.2592773437501	1002.682800292969	-822.2561645507815	-517.8513793945314	1088.477783203125	-915.6724243164065	-528.8930053710939	1057.719482421875	-942.8889770507815	-523.0818481445314	1058.245727539063	-886.4047851562502	-479.3582153320314	806.6489257812502	-1124.223388671875	-447.9910278320314	728.8150634765626	-1136.954956054688	-399.566864013672	730.3245239257814	-1135.393432617188	-473.8538818359376	675.4488525390626	-1124.196533203125	-456.653778076172	517.4143066406251	-1128.069580078125	-436.0437622070314	496.7481689453126	-1009.023315429688	-430.1883239746095	334.9113159179688	-1079.415649414063	-464.586395263672	296.9375915527344	-1152.986694335938	-430.4961853027345	291.2997741699219	-1119.9501953125	-444.7001342773439	210.8919677734376	-1098.4384765625	-500.6071777343751	96.78254699707034	-1154.14697265625	-475.6068115234376	99.58551788330081	-1071.16064453125	-555.3352661132814	48.54465103149415	-1105.490234375	-338.8323059082032	62.52943420410158	-1103.662841796875	-343.5139160156251	64.86314392089845	-1149.395629882813	-381.6380920410157	42.32384490966798	-1193.814208984375	-460.3589172363282	749.8175659179689	-735.8325195312501	-420.0749511718751	696.7600097656251	-726.5051269531251	-386.9014282226564	698.7937622070314	-730.4996337890626	-442.6781005859376	616.2404174804689	-740.8497924804689	-442.6555480957032	503.7715454101564	-741.5686645507814	-442.0046691894532	488.9844970703126	-863.957702636719	-407.7082824707032	371.6921997070313	-757.5053710937501	-484.9116516113282	310.3384399414063	-708.3672485351564	-443.4060974121095	298.7307128906251	-723.9266357421876	-437.164031982422	245.5811157226563	-745.0067749023439	-515.6526489257814	96.37281036376956	-722.1380615234376	-491.4170227050782	99.94380187988284	-804.1260986328127	-567.7085571289064	49.75902938842775	-768.0657348632815	-355.4457397460938	62.97155380249025	-772.4348144531252	-351.9796142578126	60.30437469482423	-735.9288330078126	-389.437469482422	41.33059310913087	-683.4678344726564	nan	nan	nan	nan	nan	nan	
1236	6.175	-313.1307678222657	1775.497924804688	-902.6645507812502	-437.7522888183595	1721.986572265625	-982.7837524414065	-479.810272216797	1694.472534179688	-823.288269042969	-495.5266113281251	1540.583129882813	-910.961364746094	-524.4467163085939	1234.9248046875	-917.7512207031252	-356.7437438964844	1492.470336914063	-912.0447387695315	-398.8379821777345	1538.708618164063	-1091.171142578125	-472.9804687500001	1366.522216796875	-1236.562866210938	-440.4173278808595	1327.810546875	-1229.579711914063	-482.948211669922	1305.270874023438	-1267.963989257813	-482.6572570800782	1246.468139648438	-1281.460815429688	-550.7639770507814	1240.4677734375	-1231.548706054688	-454.9262695312501	1001.648620605469	-1140.821044921875	-413.0606994628907	992.0274047851565	-1194.762939453125	-399.8347167968751	1011.300598144531	-1103.614624023438	-406.4226989746095	1510.081420898438	-716.3704223632814	-466.6548156738282	1335.246948242188	-581.6358642578126	-433.0010375976564	1297.116088867188	-588.3900756835939	-470.5374755859376	1272.607666015625	-549.0382690429689	-463.4341735839845	1210.2763671875	-537.0393066406251	-538.7471923828126	1199.5087890625	-579.3371582031251	-436.7007751464845	984.527526855469	-703.8197021484376	-395.6377258300782	965.2873535156252	-647.6102294921876	-376.6591491699219	987.3439941406252	-749.1589965820314	-363.6058044433594	1028.399047851563	-1036.341796875	-350.3033447265626	1002.611877441406	-822.2941894531252	-517.8615112304689	1088.523803710938	-915.7436523437502	-528.8574218750001	1057.744750976563	-942.9752197265627	-523.1467285156251	1058.346557617188	-886.4900512695315	-479.4406127929689	806.669372558594	-1124.210083007813	-448.0335083007814	728.7106933593751	-1136.7626953125	-399.8522949218751	730.5935058593751	-1135.147705078125	-474.027313232422	675.4634399414064	-1124.190063476563	-456.7721252441407	517.4423217773439	-1128.067749023438	-436.2318725585939	496.8327636718751	-1009.066162109375	-430.4613037109376	334.7784729003907	-1079.412353515625	-464.6459045410157	296.8909606933594	-1152.992065429688	-430.503143310547	291.3269653320313	-1119.939208984375	-444.750213623047	210.9913635253907	-1098.412109375	-500.5751342773439	96.70731353759768	-1154.110961914063	-475.5962829589845	99.57537078857425	-1071.156372070313	-555.5705566406251	48.7977752685547	-1105.83740234375	-338.6453247070313	61.96934890747072	-1103.241577148438	-343.2660217285157	64.11439514160158	-1149.200073242188	-381.6600952148438	42.24740219116212	-1193.82373046875	-460.5003662109376	749.8854370117189	-736.0888671875001	-420.1870727539064	696.7185058593751	-726.5800170898439	-386.9843139648439	698.8115844726564	-730.6303100585939	-442.878631591797	616.2428588867189	-741.0440063476564	-442.8822631835939	503.7945556640626	-741.6354370117189	-442.1593627929689	488.980682373047	-864.0645751953127	-407.5833129882814	371.5429992675782	-756.8063354492189	-484.9625549316407	310.3578491210938	-708.3761596679689	-443.4566650390626	298.7848205566407	-723.9897460937501	-437.248504638672	245.6019287109376	-744.9705200195314	-515.6633300781251	96.39859008789065	-722.1381225585939	-491.4365234375001	99.90049743652347	-804.1062622070315	-567.6976928710939	49.78718566894533	-768.1081542968752	-355.5004577636719	62.92017745971681	-772.440612792969	-352.1544799804688	60.487361907959	-735.9413452148439	-389.4437255859376	41.29053497314454	-683.4887084960939	nan	nan	nan	nan	nan	nan	
